<svg width="10" height="10" viewBox="0 0 10 10" fill="none" xmlns="http://www.w3.org/2000/svg">
<path d="M9.40676 0.806666C9.14235 0.546666 8.71523 0.546666 8.45083 0.806666L5.13557 4.06L1.82031 0.8C1.55591 0.54 1.12879 0.54 0.864382 0.8C0.599975 1.06 0.599975 1.48 0.864382 1.74L4.17964 5L0.864382 8.26C0.599975 8.52 0.599975 8.94 0.864382 9.2C1.12879 9.46 1.55591 9.46 1.82031 9.2L5.13557 5.94L8.45083 9.2C8.71523 9.46 9.14235 9.46 9.40676 9.2C9.67117 8.94 9.67117 8.52 9.40676 8.26L6.0915 5L9.40676 1.74C9.66439 1.48667 9.66439 1.06 9.40676 0.806666Z" fill="#757575"/>
</svg>
