<svg width="13" height="12" viewBox="0 0 13 12" fill="none" xmlns="http://www.w3.org/2000/svg">
<path d="M12.2723 10.3489L9.42576 7.55125C10.1321 6.75598 10.5301 5.75686 10.5541 4.71896C10.578 3.68106 10.2264 2.66651 9.55738 1.84294C8.88837 1.01937 7.94197 0.436074 6.87456 0.189429C5.80715 -0.0572154 4.68261 0.0475537 3.68676 0.486425C2.69091 0.925296 1.88334 1.672 1.39749 2.60317C0.911649 3.53433 0.776602 4.59422 1.01467 5.60771C1.25274 6.6212 1.84967 7.52763 2.70683 8.17723C3.56399 8.82682 4.63009 9.18072 5.72896 9.18042C6.71979 9.18188 7.68661 8.8925 8.49578 8.35228L11.3646 11.171C11.4222 11.2273 11.4909 11.2723 11.5669 11.3035C11.6429 11.3347 11.7246 11.3515 11.8075 11.3529C11.8903 11.3542 11.9726 11.3402 12.0497 11.3115C12.1268 11.2828 12.1971 11.24 12.2567 11.1857C12.3163 11.1313 12.364 11.0663 12.397 10.9946C12.4301 10.9228 12.4478 10.8455 12.4493 10.7673C12.4507 10.689 12.4358 10.6113 12.4055 10.5384C12.3751 10.4656 12.3298 10.3991 12.2723 10.3428V10.3489ZM5.72896 1.24534C6.43506 1.24534 7.1253 1.44315 7.7124 1.81376C8.2995 2.18436 8.75709 2.71112 9.0273 3.32742C9.29751 3.94371 9.36821 4.62187 9.23046 5.27612C9.0927 5.93038 8.75269 6.53135 8.2534 7.00305C7.75411 7.47474 7.11798 7.79597 6.42545 7.92611C5.73292 8.05625 5.0151 7.98945 4.36275 7.73418C3.7104 7.4789 3.15283 7.0466 2.76054 6.49195C2.36826 5.93729 2.15887 5.2852 2.15887 4.61813C2.15993 3.72391 2.5364 2.86661 3.20569 2.23431C3.87499 1.602 4.78244 1.24634 5.72896 1.24534Z" fill="#999999"/>
</svg>
